<svg width="42" height="54" viewBox="0 0 42 54" fill="none" xmlns="http://www.w3.org/2000/svg">
<path d="M42.0002 53.9412C38.1292 51.2162 32.189 47.7672 24.334 45.6429L21.3193 41.3838L27.3601 33.2566L42.0002 53.9412Z" fill="#C47829"/>
<path d="M38.0649 18.8589L28.4558 31.7825L27.3601 33.2565L21.3193 41.3836L15.4692 33.1175L21.5111 24.9913L28.038 16.2107C28.7741 16.9555 29.5952 17.5716 30.4836 18.0363C33.0328 19.3692 35.835 19.2946 38.0649 18.8589Z" fill="#F89621"/>
<path d="M26.3978 14.1258L21.3315 20.8785L14.6397 29.7982L12.953 32.047L12.3289 32.8789L6.26117 40.9677L0.419434 32.714L6.48717 24.6252L8.01629 22.5869L14.084 14.4982L24.4063 0.738525C23.3821 5.93016 24.2736 10.7411 26.3978 14.1258Z" fill="#14A74E"/>
<path d="M20.7671 44.8025C20.1762 44.6833 19.5926 44.5764 19.0162 44.4799C15.0104 43.8057 11.354 43.6397 8.21179 43.7248L7.90493 43.2922L6.26074 40.9677L12.3285 32.8789L13.9468 35.1651L19.7968 43.4302V43.4312L20.7671 44.8025Z" fill="#106A38"/>
</svg>
